<?xml version="1.0" encoding="utf-8"?>
<!-- Generator: Adobe Illustrator 25.4.1, SVG Export Plug-In . SVG Version: 6.00 Build 0)  -->
<svg version="1.1" id="art" xmlns="http://www.w3.org/2000/svg" xmlns:xlink="http://www.w3.org/1999/xlink" x="0px" y="0px"
	 viewBox="0 0 400 157" style="enable-background:new 0 0 400 157;" xml:space="preserve">
<style type="text/css">
	.st0{fill:#EF4629;}
</style>
<g>
	<g>
		<path class="st0" d="M4.3,70.5h3c5.1,23.1,15.5,34.6,31.3,34.6c11.8,0,19.2-7.1,19.2-17.5C57.1,76.2,50,72.5,34.8,66.4l-6.3-2.6
			C11,56.6,3.7,48.7,3.7,35.5C3.7,18,19.7,5,39.5,5C49.7,5,59.3,6.9,68,10.6l-0.6,26.2h-3C59.9,18.4,52.3,8.9,38.6,8.9
			C28.4,8.9,21,15.6,21,24.2c0,4.7,1.6,8.3,4.6,11c3.1,2.7,8.4,5.4,15.8,8.3L48,46C67,53.4,74.9,61.8,74.9,76.2
			c0,18.7-16,32.8-37.2,32.8c-6.6,0-13-0.8-19.4-2.6c-6.4-1.8-11.4-3.8-15-6L4.3,70.5z"/>
		<path class="st0" d="M75.8,104.7l1.6-0.3c4.7-1,6.4-2.7,6.4-8V53.9c0-5.7-1.8-8.1-8-8.8v-2l28.5-6.1h1.1v59.5c0,5.3,1.7,7,6.4,8
			l1.6,0.3v2.1H75.8V104.7z M94.6,10.4c6.1,0,11,4.8,11,10.5s-4.8,10.5-11,10.5c-6.3,0-11-4.8-11-10.5S88.5,10.4,94.6,10.4z"/>
		<path class="st0" d="M172.9,82.9c-5,17.7-15.1,25.9-28.8,25.9c-18.4,0-31.6-14.4-31.6-34.5c0-22.1,14.8-37.9,31.9-37.9
			c18.5,0,27.3,13.4,27.3,26.9l-0.1,2.9h-39.9c0.1,17.7,9,26.5,20.9,26.5c8.4,0,13.7-3.3,18.4-10.7L172.9,82.9z M153.3,62.8
			c-0.6-14.1-4-22.9-9.8-22.9c-6.7,0-11.1,8.5-11.7,22.9H153.3z"/>
		<path class="st0" d="M252.6,104.7v2.1h-37.3v-2.1l1.8-0.3c4.1-0.7,5.7-2.7,5.7-8V59.6c0-8.4-3.4-12.5-10.1-12.5
			c-3.8,0-7.6,1.6-10.4,4.3v45.2c0,5.3,1.9,7.3,6.3,8l1.7,0.3v2.1h-37.6v-2.1l1.7-0.3c4.6-1,6.3-2.7,6.3-8V54c0-5.5-2-8.1-8.3-8.8
			V43l28.5-6.1h0.8V49c4.1-6.7,12.4-12.5,22.5-12.5c14.1,0,20.2,9,20.2,20.8v39.2c0,5.3,1.6,7,6.6,8L252.6,104.7z"/>
		<path class="st0" d="M331.9,104.7v2.1h-37.3v-2.1l1.8-0.3c4.1-0.7,5.7-2.7,5.7-8V59.6c0-8.4-3.4-12.5-10.1-12.5
			c-3.8,0-7.6,1.6-10.4,4.3v45.2c0,5.3,1.9,7.3,6.3,8l1.7,0.3v2.1H252v-2.1l1.7-0.3c4.6-1,6.3-2.7,6.3-8V54c0-5.5-2-8.1-8.3-8.8V43
			l28.5-6.1h0.8V49c4.1-6.7,12.4-12.5,22.5-12.5c14.1,0,20.2,9,20.2,20.8v39.2c0,5.3,1.6,7,6.6,8L331.9,104.7z"/>
		<path class="st0" d="M396.6,100.9c-5,4.6-11.4,7.4-17.1,7.4c-7.6,0-11.5-4-12.7-9.1c-4.1,5.6-10.5,9-17.8,9
			c-11.5,0-18.8-8.3-18.8-18.5c0-8.5,4.8-13,17.8-17.1l18.4-5.7V54.6c0-11-2.1-15.2-6.8-15.2c-3.6,0-4.7,2.6-7.1,12.4
			c-1.6,5.6-4.3,7.3-9.3,7.3c-5.6,0-9.7-3.1-11.3-6.1c2-7.4,11.7-16.4,28.3-16.4c18.9,0,27.3,8.4,27.3,20.4v35.6
			c0,5,1.7,7.1,5.6,7.1c1,0,2.1-0.3,3.4-0.8V100.9z M366.4,95.7V69.9l-8.1,2.9c-5.8,1.9-7.7,4.6-7.7,11.3c0,8.1,4,14.7,10.4,14.7
			c2.1,0,4-0.7,5.4-2.1V95.7z"/>
	</g>
	<!--g>
		<path d="M17,129.8c-0.3-1.8-1.8-3.9-4.9-3.9c-2.5,0-4.5,1.7-4.5,3.9c0,1.7,1.1,3,3.1,3.4l3.2,0.7c3.5,0.8,5.6,2.9,5.6,6
			c0,3.3-2.9,6.3-7.4,6.3c-5,0-7.6-3.3-8-6.5l2.4-0.8c0.2,2.6,2.1,4.9,5.5,4.9c3.1,0,4.8-1.7,4.8-3.7c0-1.8-1.2-3.2-3.5-3.7
			l-3.2-0.7c-3-0.7-5.2-2.6-5.2-5.8c0-3.4,3.1-6.3,7.1-6.3c4.7,0,6.7,2.9,7.2,5.4L17,129.8z"/>
		<path d="M35.6,141.6c-0.8,2.5-3.1,4.6-6.5,4.6c-3.9,0-7.3-2.9-7.3-7.8c0-4.6,3.3-7.7,7-7.7c4.4,0,6.9,3.1,6.9,7.6
			c0,0.3,0,0.6-0.1,0.9H24.3v0.1c0,2.8,2.1,4.8,4.7,4.8c2.5,0,3.8-1.4,4.4-3.2L35.6,141.6z M33.2,137c-0.1-2.3-1.6-4.2-4.4-4.2
			c-2.5,0-4.3,2-4.4,4.2H33.2z"/>
		<path d="M41.3,145.7h-2.5V131h2.4v2.2c0.9-1.7,2.7-2.6,4.6-2.6c3.5,0,5.2,2.5,5.2,5.7v9.4h-2.5v-9c0-2.1-1-3.9-3.6-3.9
			c-2.4,0-3.7,2-3.7,4.3L41.3,145.7L41.3,145.7z"/>
		<path d="M56,123.4c1,0,1.8,0.8,1.8,1.8c0,1-0.8,1.8-1.8,1.8s-1.8-0.8-1.8-1.8C54.2,124.2,55,123.4,56,123.4z M54.8,145.7V131h2.5
			v14.7H54.8z"/>
		<path d="M74.9,138.4c0,4.5-3.1,7.8-7.4,7.8s-7.4-3.3-7.4-7.8c0-4.5,3.1-7.8,7.4-7.8S74.9,133.9,74.9,138.4z M62.7,138.4
			c0,3.6,2.3,5.6,4.9,5.6s4.9-2,4.9-5.6c0-3.6-2.3-5.5-4.9-5.5S62.7,134.8,62.7,138.4z"/>
		<path d="M85.8,133.6c-0.4-0.1-0.9-0.2-1.3-0.2c-2.5,0-4.1,1.4-4.1,4.7v7.6H78V131h2.4v2.6c0.9-2.1,2.8-2.9,4.4-2.9
			c0.4,0,0.8,0.1,1,0.1C85.8,130.9,85.8,133.6,85.8,133.6z"/>
		<path d="M95.9,145.7V124h2.6v19.4h10.6v2.4L95.9,145.7L95.9,145.7z"/>
		<path d="M112.7,123.4c1,0,1.8,0.8,1.8,1.8c0,1-0.8,1.8-1.8,1.8c-1,0-1.8-0.8-1.8-1.8C110.8,124.2,111.6,123.4,112.7,123.4z
			 M111.4,145.7V131h2.5v14.7H111.4z"/>
		<path d="M124.6,145.7h-2.5l-5.9-14.7h2.8l4.4,11.8l4.4-11.8h2.6L124.6,145.7z"/>
		<path d="M134,123.4c1,0,1.8,0.8,1.8,1.8c0,1-0.8,1.8-1.8,1.8c-1,0-1.8-0.8-1.8-1.8C132.2,124.2,133,123.4,134,123.4z M132.8,145.7
			V131h2.5v14.7H132.8z"/>
		<path d="M141.6,145.7h-2.5V131h2.4v2.2c0.9-1.7,2.7-2.6,4.6-2.6c3.5,0,5.2,2.5,5.2,5.7v9.4H149v-9c0-2.1-1-3.9-3.6-3.9
			c-2.4,0-3.7,2-3.7,4.3L141.6,145.7L141.6,145.7z"/>
		<path d="M156.6,146c0.2,2.1,1.9,3.8,4.3,3.8c3.4,0,4.7-2,4.7-5.1v-2.4c-0.7,1.4-2.3,2.7-4.7,2.7c-3.9,0-6.6-3.1-6.6-7.2
			s2.7-7.3,6.7-7.3c2.3,0,3.9,1.1,4.6,2.5V131h2.4v13.6c0,3.6-1.7,7.4-7.1,7.4c-3.6,0-6.3-2.3-6.6-5.4L156.6,146z M161.2,132.8
			c-2.7,0-4.5,2-4.5,5c0,3,1.8,5,4.5,5c2.7,0,4.5-2,4.5-5C165.7,134.8,163.9,132.8,161.2,132.8z"/>
	</g-->
</g>
</svg>
